<svg width="14" height="14" viewBox="0 0 14 14" fill="none" xmlns="http://www.w3.org/2000/svg">
<path d="M5.94824 0.595764C6.00832 0.468313 6.18895 0.468312 6.24902 0.595764L7.78125 3.85651C7.89689 4.10254 8.09479 4.30044 8.34082 4.41608L11.6016 5.9483C11.729 6.00838 11.729 6.18901 11.6016 6.24908L8.34082 7.78131C8.09479 7.89695 7.89689 8.09485 7.78125 8.34088L6.24902 11.6016C6.18895 11.7291 6.00832 11.7291 5.94824 11.6016L4.41602 8.34088C4.30038 8.09485 4.10248 7.89695 3.85645 7.78131L0.595703 6.24908C0.468251 6.18901 0.468251 6.00838 0.595703 5.9483L3.85645 4.41608C4.10248 4.30044 4.30038 4.10254 4.41602 3.85651L5.94824 0.595764Z "/>
</svg>
