<svg width="31" height="32" viewBox="0 0 31 32" fill="none" xmlns="http://www.w3.org/2000/svg">
<path d="M30.9812 22.4379C30.6995 18.0254 28.2586 14.9742 27.2259 13.7068C27.0851 13.5191 26.9442 13.3313 26.8973 13.2844C26.381 12.4394 24.5972 11.3128 22.8134 12.0169C22.4848 12.1578 22.2032 12.2986 21.9685 12.4864C21.9685 11.9231 22.1093 11.2659 22.4379 10.7026C22.9542 9.81071 23.8461 9.20047 25.1135 8.87189C25.3482 8.82495 25.536 8.5433 25.4421 8.30859C25.3482 8.02694 25.1135 7.88612 24.8788 7.93306C23.3767 8.30859 22.2501 9.10659 21.6399 10.1862C21.1705 11.0312 21.0297 11.97 21.0297 12.6741C20.748 12.4394 20.4194 12.2517 20.1378 12.1578C18.2601 9.85765 15.5845 8.49636 12.8149 8.49636C12.4394 8.49636 12.0169 8.5433 11.6414 8.59024C11.5945 8.59024 11.5945 8.5433 11.5475 8.5433C11.5475 8.21471 11.5945 7.69836 11.8292 7.08812C11.8292 7.04118 11.8292 7.04118 11.8761 7.04118V6.99424C12.2517 5.91459 13.1435 4.5533 15.0681 3.28588C15.3028 3.14506 15.3498 2.86341 15.2089 2.62871C15.0681 2.394 14.7865 2.34706 14.5518 2.48788C13.4252 3.23894 12.6272 4.03694 12.0169 4.788C11.9231 3.89612 11.6414 2.91035 10.8434 2.11235C9.05965 0.328588 5.16353 0.0469412 4.97577 0C4.83494 0 4.69412 0.0469411 4.60024 0.140823C4.50636 0.234706 4.45941 0.37553 4.45941 0.516353C4.45941 0.657177 4.74106 4.60024 6.52483 6.384C7.46365 7.32283 8.73106 7.55753 9.71683 7.55753C10.0454 7.55753 10.374 7.51059 10.6557 7.51059C10.5618 7.93306 10.5148 8.26165 10.5148 8.5433C4.69412 8.91883 0 13.8007 0 19.7622C0 26.7095 4.36553 30.9812 11.3598 30.9812C11.4537 30.9812 11.5475 30.9342 11.5945 30.8873C11.97 30.9342 12.3925 30.9812 12.768 30.9812C14.5518 30.9812 16.2886 30.4179 17.7907 29.4321C19.199 30.4648 20.795 31.0751 22.391 31.0751C22.6257 31.0751 22.8604 31.0751 23.0951 31.0281C24.2686 30.8873 25.3482 30.4179 26.2401 29.6668C26.6626 29.6199 26.9443 29.573 26.9912 29.573C27.0381 29.573 27.0381 29.573 27.0851 29.526C27.2259 29.526 31.3098 27.7422 30.9812 22.4379ZM12.768 30.0424C7.83918 30.0424 3.80224 25.3952 3.80224 19.7622C3.80224 14.0824 7.83918 9.43518 12.768 9.43518C14.8334 9.43518 16.8519 10.2801 18.4479 11.7353C17.6499 11.6884 17.1335 11.8761 17.0397 11.8761C17.0397 11.8761 17.0397 11.8761 16.9927 11.8761C13.8477 13.2844 12.2517 17.2744 13.0966 21.6399C13.6599 24.5972 15.162 27.132 17.0397 28.8219C15.7722 29.6199 14.2701 30.0424 12.768 30.0424ZM26.8504 28.6811C26.381 28.728 23.2828 29.1505 21.6868 27.8831C19.3398 26.0054 17.9315 23.7522 17.1805 20.795C16.3825 17.556 16.1008 13.7068 17.4152 12.768C17.7907 12.6741 19.8561 12.2986 21.4991 14.5048H21.546V14.5518C21.546 14.5518 22.2501 15.3028 22.391 16.0539C22.0624 16.1008 21.8277 16.2417 21.593 16.4764C20.8419 17.2274 20.4664 18.8704 20.6541 20.3725C20.9358 22.4848 23.142 24.3625 24.6441 24.3625H24.8788C25.9585 24.2217 26.2401 23.189 26.2401 22.0154C26.2401 21.2644 26.1463 20.4194 26.0054 19.7153C25.9115 17.556 24.4564 16.4294 23.2828 16.1008C23.189 15.1151 22.4848 14.2701 22.2501 13.9885C22.2032 13.7538 22.2032 13.2374 23.0951 12.8619C24.3625 12.3455 25.7238 13.2374 26.0524 13.7538C26.1462 13.8946 26.2871 14.0354 26.4748 14.2701C27.4606 15.4906 29.7607 18.354 29.9954 22.4848C30.2771 26.8973 27.2728 28.4464 26.8504 28.6811Z" fill="#D3590B"/>
</svg>
